<svg xmlns="http://www.w3.org/2000/svg" width="1436" height="774" viewBox="0 0 1436 774">
  <rect width="1436" height="774" fill="#141414"/>
  <svg x="14" y="14" width="144" height="144" viewBox="0 0 144 144">
    <rect width="144" height="144" fill="#000000"/>
    
    <text x="72" y="84" font-family="Consolas" font-weight="700" font-size="25.5" fill="rgb(205 214 244)" text-anchor="middle">primary</text>
    
  </svg>
  <svg x="172" y="14" width="144" height="144" viewBox="0 0 144 144">
    <rect width="144" height="144" fill="#000000"/>
    
    <text x="72" y="64" font-family="Consolas" font-weight="700" font-size="24" fill="rgb(205 214 244)" text-anchor="middle">NO</text><text x="72" y="93" font-family="Consolas" font-weight="700" font-size="24" fill="rgb(205 214 244)" text-anchor="middle">WORKTREE</text>
    
  </svg>
  <svg x="330" y="14" width="144" height="144" viewBox="0 0 144 144">
    <rect width="144" height="144" fill="#000000"/>
    
    <text x="72" y="84" font-family="Consolas" font-weight="700" font-size="24" fill="rgb(205 214 244)" text-anchor="middle">NO AGENT</text>
    
  </svg>
  <svg x="488" y="14" width="144" height="144" viewBox="0 0 144 144">
    <rect width="144" height="144" fill="#000000"/>
    
    <text x="72" y="64" font-family="Consolas" font-weight="700" font-size="27" fill="rgb(205 214 244)" text-anchor="middle">search</text><text x="72" y="93" font-family="Consolas" font-weight="700" font-size="27" fill="rgb(205 214 244)" text-anchor="middle">perf</text>
    <text x="72" y="130" font-family="Consolas" font-weight="700" font-size="18" fill="rgb(166 173 200)" text-anchor="middle" letter-spacing=".1">HERDR-STREA…</text>
  </svg>
  <svg x="646" y="14" width="144" height="144" viewBox="0 0 144 144">
    <rect width="144" height="144" fill="#000000"/>
    
    <text x="72" y="64" font-family="Consolas" font-weight="700" font-size="27" fill="rgb(205 214 244)" text-anchor="middle">perf/</text><text x="72" y="93" font-family="Consolas" font-weight="700" font-size="27" fill="rgb(205 214 244)" text-anchor="middle">search</text>
    
  </svg>
  <svg x="804" y="14" width="144" height="144" viewBox="0 0 144 144">
    <rect width="144" height="144" fill="#000000"/>
    
    <text x="72" y="84" font-family="Consolas" font-weight="700" font-size="24" fill="rgb(205 214 244)" text-anchor="middle">NO AGENT</text>
    
  </svg>
  <svg x="962" y="14" width="144" height="144" viewBox="0 0 144 144">
    <rect width="144" height="144" fill="#000000"/>
    <text x="16" y="32" font-family="Consolas" font-weight="700" font-size="26" fill="rgb(166 173 200)">3</text>
    
    <path d="M57 76H87M72 61V91" stroke="rgb(166 173 200)" stroke-width="6" stroke-linecap="round"/>
  </svg>
  <svg x="1120" y="14" width="144" height="144" viewBox="0 0 144 144"><rect width="144" height="144" fill="#000000"/></svg>
  <svg x="1278" y="14" width="144" height="144" viewBox="0 0 144 144"><rect width="144" height="144" fill="#000000"/></svg>
  <svg x="14" y="172" width="144" height="144" viewBox="0 0 144 144"><rect width="144" height="144" fill="#000000"/></svg>
  <svg x="172" y="172" width="144" height="144" viewBox="0 0 144 144"><rect width="144" height="144" fill="#000000"/></svg>
  <svg x="330" y="172" width="144" height="144" viewBox="0 0 144 144"><rect width="144" height="144" fill="#000000"/></svg>
  <svg x="488" y="172" width="144" height="144" viewBox="0 0 144 144"><rect width="144" height="144" fill="#000000"/></svg>
  <svg x="646" y="172" width="144" height="144" viewBox="0 0 144 144"><rect width="144" height="144" fill="#000000"/></svg>
  <svg x="804" y="172" width="144" height="144" viewBox="0 0 144 144"><rect width="144" height="144" fill="#000000"/></svg>
  <svg x="962" y="172" width="144" height="144" viewBox="0 0 144 144"><rect width="144" height="144" fill="#000000"/></svg>
  <svg x="1120" y="172" width="144" height="144" viewBox="0 0 144 144"><rect width="144" height="144" fill="#000000"/></svg>
  <svg x="1278" y="172" width="144" height="144" viewBox="0 0 144 144"><rect width="144" height="144" fill="#000000"/></svg>
  <svg x="14" y="330" width="144" height="144" viewBox="0 0 144 144"><rect width="144" height="144" fill="#000000"/></svg>
  <svg x="172" y="330" width="144" height="144" viewBox="0 0 144 144"><rect width="144" height="144" fill="#000000"/></svg>
  <svg x="330" y="330" width="144" height="144" viewBox="0 0 144 144"><rect width="144" height="144" fill="#000000"/></svg>
  <svg x="488" y="330" width="144" height="144" viewBox="0 0 144 144"><rect width="144" height="144" fill="#000000"/></svg>
  <svg x="646" y="330" width="144" height="144" viewBox="0 0 144 144"><rect width="144" height="144" fill="#000000"/></svg>
  <svg x="804" y="330" width="144" height="144" viewBox="0 0 144 144"><rect width="144" height="144" fill="#000000"/></svg>
  <svg x="962" y="330" width="144" height="144" viewBox="0 0 144 144"><rect width="144" height="144" fill="#000000"/></svg>
  <svg x="1120" y="330" width="144" height="144" viewBox="0 0 144 144"><rect width="144" height="144" fill="#000000"/></svg>
  <svg x="1278" y="330" width="144" height="144" viewBox="0 0 144 144"><rect width="144" height="144" fill="#000000"/></svg>
  <svg x="14" y="488" width="144" height="144" viewBox="0 0 144 144"><rect width="144" height="144" fill="#000000"/></svg>
  <svg x="172" y="488" width="144" height="144" viewBox="0 0 144 144"><rect width="144" height="144" fill="#000000"/></svg>
  <svg x="330" y="488" width="144" height="144" viewBox="0 0 144 144"><rect width="144" height="144" fill="#000000"/></svg>
  <svg x="488" y="488" width="144" height="144" viewBox="0 0 144 144"><rect width="144" height="144" fill="#000000"/></svg>
  <svg x="646" y="488" width="144" height="144" viewBox="0 0 144 144"><rect width="144" height="144" fill="#000000"/></svg>
  <svg x="804" y="488" width="144" height="144" viewBox="0 0 144 144"><rect width="144" height="144" fill="#000000"/></svg>
  <svg x="962" y="488" width="144" height="144" viewBox="0 0 144 144"><rect width="144" height="144" fill="#000000"/></svg>
  <svg x="1120" y="488" width="144" height="144" viewBox="0 0 144 144"><rect width="144" height="144" fill="#000000"/></svg>
  <svg x="1278" y="488" width="144" height="144" viewBox="0 0 144 144"><rect width="144" height="144" fill="#000000"/></svg>
  <svg x="118" y="660" width="200" height="100" viewBox="0 0 200 100">
    <rect width="1200" height="100" fill="#000000"/>
    <rect x="0" y="0" width="5" height="100" fill="rgb(137 180 250)"/>
    <text x="18" y="32" font-family="Consolas" font-weight="700" font-size="20" letter-spacing="0.2" fill="rgb(166 173 200)">HERDR</text>
    <text x="18" y="73" font-family="Consolas" font-weight="700" font-size="28" fill="rgb(205 214 244)">LIVE</text>
  </svg>
  <svg x="318" y="660" width="200" height="100" viewBox="200 0 200 100">
    <rect width="1200" height="100" fill="#000000"/>
    <rect x="200" y="0" width="5" height="100" fill="rgb(137 180 250)"/>
    <text x="218" y="32" font-family="Consolas" font-weight="700" font-size="20" letter-spacing="0.2" fill="rgb(166 173 200)">WORKSPACES</text>
    <text x="218" y="73" font-family="Consolas" font-weight="700" font-size="28" fill="rgb(205 214 244)">2</text>
  </svg>
  <svg x="518" y="660" width="200" height="100" viewBox="400 0 200 100">
    <rect width="1200" height="100" fill="#000000"/>
    <rect x="400" y="0" width="5" height="100" fill="rgb(137 180 250)"/>
    <text x="418" y="32" font-family="Consolas" font-weight="700" font-size="20" letter-spacing="0.2" fill="rgb(166 173 200)">PANES</text>
    <text x="418" y="73" font-family="Consolas" font-weight="700" font-size="28" fill="rgb(205 214 244)">1</text>
  </svg>
  <svg x="718" y="660" width="200" height="100" viewBox="600 0 200 100">
    <rect width="1200" height="100" fill="#000000"/>
    
    <text x="618" y="32" font-family="Consolas" font-weight="700" font-size="20" letter-spacing="0.2" fill="rgb(166 173 200)"></text>
    <text x="618" y="73" font-family="Consolas" font-weight="700" font-size="28" fill="rgb(205 214 244)"></text>
  </svg>
  <svg x="918" y="660" width="200" height="100" viewBox="800 0 200 100">
    <rect width="1200" height="100" fill="#000000"/>
    
    <text x="818" y="32" font-family="Consolas" font-weight="700" font-size="20" letter-spacing="0.2" fill="rgb(166 173 200)"></text>
    <text x="818" y="73" font-family="Consolas" font-weight="700" font-size="28" fill="rgb(205 214 244)"></text>
  </svg>
  <svg x="1118" y="660" width="200" height="100" viewBox="1000 0 200 100">
    <rect width="1200" height="100" fill="#000000"/>
    
    <text x="1018" y="32" font-family="Consolas" font-weight="700" font-size="20" letter-spacing="0.2" fill="rgb(166 173 200)"></text>
    <text x="1018" y="73" font-family="Consolas" font-weight="700" font-size="28" fill="rgb(205 214 244)"></text>
  </svg>
</svg>